<?xml version="1.0" standalone="no"?>
<!DOCTYPE svg PUBLIC "-//W3C//DTD SVG 20010904//EN"
 "http://www.w3.org/TR/2001/REC-SVG-20010904/DTD/svg10.dtd">
<svg version="1.0" xmlns="http://www.w3.org/2000/svg"
 width="320.000000pt" height="126.545455pt" viewBox="0 0 320.000000 126.545455"
 preserveAspectRatio="xMidYMid meet">
<metadata>
Created by potrace 1.16, written by Peter Selinger 2001-2019
</metadata>
<g transform="translate(0.000000,126.545455) scale(0.009697,-0.009697)"
fill="#000000" stroke="none">
<path d="M0 6525 l0 -6525 16500 0 16500 0 0 6525 0 6525 -16500 0 -16500 0 0
-6525z m4295 2705 l440 -2790 449 2777 c247 1528 451 2784 454 2791 3 9 265
12 1263 12 l1259 0 2 -4954 3 -4953 748 4936 c412 2715 751 4944 754 4954 4
16 76 17 1323 17 l1318 0 5 -22 c3 -13 328 -2155 723 -4761 l719 -4739 6 1524
c3 837 7 2980 8 4761 l1 3238 1138 -4 c1170 -5 1194 -5 1452 -48 930 -154
1711 -710 2223 -1584 47 -80 57 -93 52 -65 -3 19 -50 395 -105 835 -55 440
-102 815 -105 833 l-6 32 1009 0 1010 0 10 -67 c5 -38 207 -1509 448 -3270
241 -1762 441 -3203 444 -3203 3 0 205 1441 449 3203 244 1761 448 3232 454
3270 l9 67 2789 0 2789 0 0 -995 0 -995 -885 0 -885 0 0 -1220 0 -1220 885 0
885 0 0 -995 0 -995 -885 0 -885 0 0 -1240 0 -1240 885 0 885 0 0 -980 0 -980
-1875 0 -1875 0 -2 4871 -3 4871 -781 -4867 c-430 -2676 -784 -4869 -788
-4872 -3 -3 -525 -8 -1160 -11 -1126 -5 -1154 -4 -1159 14 -3 10 -259 1522
-569 3359 l-563 3339 -6 -184 c-10 -266 -45 -474 -124 -734 -177 -582 -564
-1180 -980 -1516 l-80 -65 617 -2075 c340 -1141 620 -2090 624 -2107 l6 -33
-978 0 -979 0 -474 1793 c-261 985 -475 1793 -477 1795 -1 2 -103 -11 -228
-29 l-226 -32 0 -1765 0 -1765 -1882 6 c-1035 4 -1883 8 -1884 10 -2 1 -53
365 -114 807 -60 443 -113 815 -115 828 l-5 22 -764 0 -764 0 -6 -37 c-4 -21
-53 -382 -111 -803 -58 -421 -108 -777 -111 -793 l-6 -27 -1914 0 -1914 0 -2
2582 -3 2583 -419 -2465 c-230 -1356 -428 -2518 -439 -2582 l-21 -118 -532 0
-532 0 -4 27 c-2 16 -202 1174 -444 2574 l-439 2547 -3 -2574 -2 -2574 -995 0
-995 0 0 5430 0 5430 1263 0 1262 0 440 -2790z m25845 -1660 l0 -4450 845 0
845 0 0 -980 0 -980 -1835 0 -1835 0 0 5430 0 5430 990 0 990 0 0 -4450z"/>
<path d="M15750 8329 l0 -1742 79 7 c264 22 526 149 731 356 359 360 535 910
500 1561 -33 610 -222 1044 -569 1304 -190 144 -412 227 -668 250 l-73 6 0
-1742z"/>
<path d="M10991 9128 c0 -10 -120 -1038 -266 -2285 -146 -1246 -265 -2270
-265 -2275 0 -4 245 -8 545 -8 300 0 545 4 545 8 0 9 -545 4496 -553 4547 -2
17 -5 22 -6 13z"/>
</g>
</svg>
