<svg width="0" height="0" class="hidden">
  <symbol fill="none" xmlns="http://www.w3.org/2000/svg" viewBox="0 0 14 14" id="user">
    <path d="M7 8C8.38071 8 9.5 6.88071 9.5 5.5C9.5 4.11929 8.38071 3 7 3C5.61929 3 4.5 4.11929 4.5 5.5C4.5 6.88071 5.61929 8 7 8Z" stroke="#000001" stroke-linecap="round" stroke-linejoin="round"></path>
    <path d="M2.73 11.9001C3.17624 11.1676 3.80341 10.5622 4.55121 10.1422C5.29901 9.72211 6.14229 9.50146 7 9.50146C7.85771 9.50146 8.70099 9.72211 9.44879 10.1422C10.1966 10.5622 10.8238 11.1676 11.27 11.9001" stroke="#000001" stroke-linecap="round" stroke-linejoin="round"></path>
    <path d="M7 13.5C10.5899 13.5 13.5 10.5899 13.5 7C13.5 3.41015 10.5899 0.5 7 0.5C3.41015 0.5 0.5 3.41015 0.5 7C0.5 10.5899 3.41015 13.5 7 13.5Z" stroke="#000001" stroke-linecap="round" stroke-linejoin="round"></path>
  </symbol>
  <symbol fill="none" xmlns="http://www.w3.org/2000/svg" viewBox="0 0 14 14" id="home">
    <path d="M0.5 7L7 0.5L13.5 7" stroke="#000001" stroke-linecap="round" stroke-linejoin="round"></path>
    <path d="M2.5 8.5V13.5H11.5V8.5" stroke="#000001" stroke-linecap="round" stroke-linejoin="round"></path>
  </symbol>
  <symbol fill="none" xmlns="http://www.w3.org/2000/svg" viewBox="0 0 14 14" id="regist">
    <path d="M5 5C6.24264 5 7.25 3.99264 7.25 2.75C7.25 1.50736 6.24264 0.5 5 0.5C3.75736 0.5 2.75 1.50736 2.75 2.75C2.75 3.99264 3.75736 5 5 5Z" stroke="#000001" stroke-linecap="round" stroke-linejoin="round"></path>
    <path d="M3.5 12.5H0.5V11C0.507961 10.2378 0.708977 9.49005 1.08427 8.82659C1.45957 8.16314 1.9969 7.60562 2.64607 7.20613C3.29525 6.80664 4.03509 6.5782 4.79648 6.54216C5.55788 6.50611 6.31599 6.66363 7 7.00001" stroke="#000001" stroke-linecap="round" stroke-linejoin="round"></path>
    <path d="M13.5 8.50003L8.79 13.21L6.66 13.5L6.96 11.37L11.66 6.66003L13.5 8.50003Z" stroke="#000001" stroke-linecap="round" stroke-linejoin="round"></path>
  </symbol>
  <symbol xmlns="http://www.w3.org/2000/svg" viewBox="0 0 576 512" id="movie">
    <path d="M0 128C0 92.7 28.7 64 64 64H320c35.3 0 64 28.7 64 64V384c0 35.3-28.7 64-64 64H64c-35.3 0-64-28.7-64-64V128zM559.1 99.8c10.4 5.6 16.9 16.4 16.9 28.2V384c0 11.8-6.5 22.6-16.9 28.2s-23 5-32.9-1.6l-96-64L416 337.1V320 192 174.9l14.2-9.5 96-64c9.8-6.5 22.4-7.2 32.9-1.6z"></path>
  </symbol>
  <symbol fill="none" xmlns="http://www.w3.org/2000/svg" viewBox="0 0 14 14" id="login">
    <path d="M9.5 10V12.5C9.5 12.7652 9.39464 13.0196 9.20711 13.2071C9.01957 13.3946 8.76522 13.5 8.5 13.5H1.5C1.23478 13.5 0.98043 13.3946 0.792893 13.2071C0.605357 13.0196 0.5 12.7652 0.5 12.5V1.5C0.5 1.23478 0.605357 0.98043 0.792893 0.792893C0.98043 0.605357 1.23478 0.5 1.5 0.5H8.5C8.76522 0.5 9.01957 0.605357 9.20711 0.792893C9.39464 0.98043 9.5 1.23478 9.5 1.5V4" stroke="#000001" stroke-linecap="round" stroke-linejoin="round"></path>
    <path d="M12.5 7H4.5" stroke="#000001" stroke-linecap="round" stroke-linejoin="round"></path>
    <path d="M6.5 5L4.5 7L6.5 9" stroke="#000001" stroke-linecap="round" stroke-linejoin="round"></path>
  </symbol>
  <symbol xmlns="http://www.w3.org/2000/svg" viewBox="0 0 576 512" id="book">
    <path d="M249.6 471.5c10.8 3.8 22.4-4.1 22.4-15.5V78.6c0-4.2-1.6-8.4-5-11C247.4 52 202.4 32 144 32C93.5 32 46.3 45.3 18.1 56.1C6.8 60.5 0 71.7 0 83.8V454.1c0 11.9 12.8 20.2 24.1 16.5C55.6 460.1 105.5 448 144 448c33.9 0 79 14 105.6 23.5zm76.8 0C353 462 398.1 448 432 448c38.5 0 88.4 12.1 119.9 22.6c11.3 3.8 24.1-4.6 24.1-16.5V83.8c0-12.1-6.8-23.3-18.1-27.6C529.7 45.3 482.5 32 432 32c-58.4 0-103.4 20-123 35.6c-3.3 2.6-5 6.8-5 11V456c0 11.4 11.7 19.3 22.4 15.5z"></path>
  </symbol>
  <symbol xmlns="http://www.w3.org/2000/svg" id="marvel" viewBox="0 0 40 40">
    <path d="M34.44 27.12h-30V13.54h30Z"></path>
    <path fill="#fff" d="M30.34 15.47H32v8h1.43v2h-3.09zm-11.57 4.75c1.21-.08 1.1-1.57 1.1-1.57-.18-1.46-1.1-1.39-1.1-1.39zm-3.87 2.3-.51-3-.43 3zM5.67 25.4v-9.93h2.26l.81 4.16.91-4.16h2.19v8.94l1.42-8.94h2.23l1.39 8.94v-8.9h2.95a2.26 2.26 0 0 1 1.53 1.6l-.21-1.64h1.78l.84 5.15.88-5.11h5v1.86h-1.5v2h1.42v2.08h-1.34v1.9h1.46v2h-3.25v-9.51l-1.68 9.56h-2l-1.06-6.35a4.36 4.36 0 0 1-1.16 2.55l1.27 3.8h-1.76l-1.24-3.32v3.32h-3.54l-.18-.95h-1.35l-.3.95h-3.35v-3.65l-.88 3.65H8.3l-.8-3.61v3.57z"></path>
  </symbol>
  <symbol xmlns="http://www.w3.org/2000/svg" viewBox="0 0 640 512" id="chat">
    <path d="M208 352c114.9 0 208-78.8 208-176S322.9 0 208 0S0 78.8 0 176c0 38.6 14.7 74.3 39.6 103.4c-3.5 9.4-8.7 17.7-14.2 24.7c-4.8 6.2-9.7 11-13.3 14.3c-1.8 1.6-3.3 2.9-4.3 3.7c-.5 .4-.9 .7-1.1 .8l-.2 .2 0 0 0 0C1 327.2-1.4 334.4 .8 340.9S9.1 352 16 352c21.8 0 43.8-5.6 62.1-12.5c9.2-3.5 17.8-7.4 25.3-11.4C134.1 343.3 169.8 352 208 352zM448 176c0 112.3-99.1 196.9-216.5 207C255.8 457.4 336.4 512 432 512c38.2 0 73.9-8.7 104.7-23.9c7.5 4 16 7.9 25.2 11.4c18.3 6.9 40.3 12.5 62.1 12.5c6.9 0 13.1-4.5 15.2-11.1c2.1-6.6-.2-13.8-5.8-17.9l0 0 0 0-.2-.2c-.2-.2-.6-.4-1.1-.8c-1-.8-2.5-2-4.3-3.7c-3.6-3.3-8.5-8.1-13.3-14.3c-5.5-7-10.7-15.4-14.2-24.7c24.9-29 39.6-64.7 39.6-103.4c0-92.8-84.9-168.9-192.6-175.5c.4 5.1 .6 10.3 .6 15.5z"></path>
  </symbol>
</svg>

<svg class="icon">
  <use xlink:href="#user"></use>
</svg><svg class="icon">
  <use xlink:href="#home"></use>
</svg><svg class="icon">
  <use xlink:href="#regist"></use>
</svg><svg class="icon">
  <use xlink:href="#movie"></use>
</svg><svg class="icon">
  <use xlink:href="#login"></use>
</svg><svg class="icon">
  <use xlink:href="#book"></use>
</svg><svg class="icon">
  <use xlink:href="#marvel"></use>
</svg><svg class="icon">
  <use xlink:href="#chat"></use>
</svg>