<svg width="0" height="0" class="hidden">
  <symbol fill="none" xmlns="http://www.w3.org/2000/svg" viewBox="0 0 26 36" id="10">
    <path fill-rule="evenodd" clip-rule="evenodd" d="M8 9C8 4.02944 12.0294 0 17 0C21.9706 0 26 4.02944 26 9V26.5C26 31.4706 21.9706 35.5 17 35.5C12.0294 35.5 8 31.4706 8 26.5V9ZM13 7.5C13 5.29086 14.7909 3.5 17 3.5C19.2091 3.5 21 5.29086 21 7.5V28C21 30.2091 19.2091 32 17 32C14.7909 32 13 30.2091 13 28V7.5Z" fill="#222222"></path>
    <path d="M4.77433 1H0V35H4.77433V1Z" fill="#222222"></path>
  </symbol>
  <symbol fill="none" xmlns="http://www.w3.org/2000/svg" viewBox="0 0 96 82" id="spades">
    <path d="M44.104 12.001C33.731 19.4974 23.0804 28.0157 15.0787 37.7653C13.1214 40.1501 11.5179 42.7583 10.3309 45.4724C11.8628 46.6468 12.8505 48.4954 12.8505 50.5747C12.8505 53.5956 10.7658 56.1295 7.95654 56.8164C8.06696 62.0076 9.91957 67.0136 13.9204 71.0747C21.6994 78.9709 32.7033 78.7779 41.4334 73.7642C41.306 73.2596 41.2384 72.7311 41.2384 72.1869C41.2384 68.6383 44.115 65.7617 47.6636 65.7617C51.2121 65.7617 54.0888 68.6383 54.0888 72.1869C54.0888 72.7311 54.0212 73.2595 53.8938 73.7642C62.6239 78.7778 73.6277 78.971 81.4068 71.0747C85.4076 67.0136 87.2602 62.0076 87.3706 56.8164C84.5614 56.1295 82.4767 53.5956 82.4767 50.5747C82.4767 48.4954 83.4644 46.6468 84.9962 45.4724C83.8093 42.7583 82.2058 40.1501 80.2485 37.7653C72.2462 28.015 61.5946 19.4962 51.221 11.9994C50.202 12.6787 48.9779 13.0747 47.6613 13.0747C46.3457 13.0747 45.1225 12.6794 44.104 12.001Z" fill="#737373"></path>
    <path d="M87.1458 52.9086C86.9719 51.6542 86.7042 50.4001 86.3482 49.1565C86.3442 49.1636 86.3403 49.1708 86.3364 49.178C86.11 49.5929 85.9813 50.0688 85.9813 50.5747C85.9813 51.5228 86.433 52.3653 87.1329 52.8988C87.1372 52.9021 87.1415 52.9053 87.1458 52.9086Z" fill="#737373"></path>
    <path d="M47.9703 9.55392C47.868 9.48132 47.7658 9.40883 47.6636 9.33643C47.5612 9.40896 47.4588 9.48161 47.3563 9.55434C47.4071 9.55961 47.4583 9.56358 47.5099 9.56621C47.56 9.56877 47.6105 9.57007 47.6613 9.57007C47.7135 9.57007 47.7654 9.5687 47.817 9.56599C47.8685 9.56329 47.9196 9.55925 47.9703 9.55392Z" fill="#737373"></path>
    <path d="M47.3336 69.2848C46.1127 69.422 45.1196 70.312 44.8292 71.4797C44.8284 71.4831 44.8276 71.4865 44.8267 71.4898C45.7022 70.8055 46.5417 70.0689 47.3381 69.2843C47.3366 69.2844 47.3351 69.2846 47.3336 69.2848Z" fill="#737373"></path>
    <path d="M47.989 69.2843C47.9905 69.2844 47.992 69.2846 47.9935 69.2848C49.2144 69.422 50.2075 70.312 50.4979 71.4797C50.4988 71.483 50.4996 71.4864 50.5004 71.4898C49.625 70.8055 48.7854 70.0689 47.989 69.2843Z" fill="#737373"></path>
    <path d="M8.97894 49.1565C8.98292 49.1636 8.98687 49.1708 8.9908 49.178C9.21717 49.5929 9.34583 50.0688 9.34583 50.5747C9.34583 51.5228 8.89414 52.3653 8.19423 52.8988C8.18996 52.9021 8.18567 52.9053 8.18138 52.9086C8.35525 51.6542 8.62296 50.4001 8.97894 49.1565Z" fill="#737373"></path>
    <path fill-rule="evenodd" clip-rule="evenodd" d="M92.0548 56.1746C92.1157 62.6511 89.9441 69.071 84.7325 74.3613C74.9161 84.3255 61.4036 83.6011 51.176 77.5681C50.1665 78.2283 48.9599 78.6122 47.6636 78.6122C46.3673 78.6122 45.1607 78.2283 44.1512 77.5681C33.9235 83.6012 20.4109 84.3254 10.5946 74.3613C5.38296 69.071 3.21143 62.6511 3.27227 56.1746C1.31891 55.0724 0 52.9776 0 50.5748C0 47.2284 2.55827 44.4795 5.82574 44.1772C7.22815 40.8023 9.15443 37.6147 11.4694 34.7941C19.8649 24.5647 30.933 15.7454 41.4175 8.17204C41.2989 7.68399 41.236 7.17414 41.236 6.6496C41.236 3.10104 44.1127 0.224365 47.6613 0.224365C51.2098 0.224365 54.0865 3.10104 54.0865 6.6496C54.0865 7.17313 54.0239 7.68203 53.9057 8.16923C64.3914 15.7432 75.4612 24.5635 83.8577 34.7941C86.1727 37.6147 88.0989 40.8023 89.5014 44.1772C92.7688 44.4795 95.3271 47.2284 95.3271 50.5748C95.3271 52.9776 94.0082 55.0724 92.0548 56.1746ZM15.0786 37.7654C23.0804 28.0158 33.731 19.4975 44.104 12.001C45.1225 12.6795 46.3457 13.0748 47.6613 13.0748C48.9779 13.0748 50.202 12.6788 51.221 11.9995C61.5946 19.4963 72.2462 28.0151 80.2485 37.7654C82.2057 40.1502 83.8092 42.7583 84.9962 45.4725C83.4643 46.6469 82.4766 48.4955 82.4766 50.5748C82.4766 53.5957 84.5613 56.1296 87.3706 56.8165C87.2602 62.0077 85.4076 67.0137 81.4067 71.0748C73.6276 78.9711 62.6238 78.7779 53.8938 73.7643C54.0211 73.2596 54.0888 72.7312 54.0888 72.187C54.0888 68.6384 51.2121 65.7617 47.6636 65.7617C44.115 65.7617 41.2383 68.6384 41.2383 72.187C41.2383 72.7312 41.306 73.2597 41.4334 73.7643C32.7033 78.778 21.6994 78.971 13.9204 71.0748C9.91954 67.0137 8.06692 62.0077 7.95651 56.8165C10.7657 56.1296 12.8505 53.5957 12.8505 50.5748C12.8505 48.4955 11.8627 46.6469 10.3309 45.4725C11.5179 42.7583 13.1214 40.1502 15.0786 37.7654ZM47.6613 3.72904C46.3883 3.72904 45.3055 4.54352 44.9056 5.67979C44.7988 5.98324 44.7407 6.30963 44.7407 6.6496C44.7407 8.21179 45.9672 9.48751 47.5098 9.5663C47.56 9.56886 47.6105 9.57016 47.6613 9.57016C47.7135 9.57016 47.7654 9.56879 47.817 9.56608C49.3576 9.48516 50.5818 8.21035 50.5818 6.6496C50.5818 6.30803 50.5232 5.98015 50.4154 5.67549C50.0146 4.54214 48.934 3.73001 47.6635 3.72904C47.6628 3.72904 47.662 3.72904 47.6613 3.72904ZM44.8292 71.4798C45.1196 70.3121 46.1127 69.4221 47.3336 69.2849C47.4419 69.2727 47.552 69.2664 47.6636 69.2664C47.7751 69.2664 47.8852 69.2727 47.9935 69.2849C49.2144 69.4221 50.2075 70.3121 50.4979 71.4798C50.5542 71.7062 50.5841 71.9431 50.5841 72.187C50.5841 73.8 49.2765 75.1075 47.6636 75.1075C46.0506 75.1075 44.743 73.8 44.743 72.187C44.743 71.9431 44.7729 71.7062 44.8292 71.4798ZM3.50467 50.5748C3.50467 50.9265 3.56682 51.2636 3.68072 51.5758C4.08931 52.6958 5.16389 53.4954 6.42523 53.4954C7.0902 53.4954 7.70326 53.2732 8.1942 52.8989C8.89411 52.3654 9.34579 51.5229 9.34579 50.5748C9.34579 50.0689 9.21714 49.593 8.99076 49.1781C8.49544 48.2702 7.53227 47.6543 6.42523 47.6543C5.60993 47.6543 4.87265 47.9884 4.34283 48.5271C3.82446 49.0542 3.50467 49.7772 3.50467 50.5748ZM86.3363 49.1781C86.11 49.593 85.9813 50.0689 85.9813 50.5748C85.9813 51.5229 86.433 52.3654 87.1329 52.8989C87.6238 53.2732 88.2369 53.4954 88.9019 53.4954C90.1632 53.4954 91.2378 52.6958 91.6464 51.5758C91.7603 51.2636 91.8224 50.9265 91.8224 50.5748C91.8224 49.7772 91.5026 49.0542 90.9843 48.5271C90.4545 47.9883 89.7172 47.6543 88.9019 47.6543C87.7948 47.6543 86.8317 48.2702 86.3363 49.1781Z" fill="#2C2C2C"></path>
    <path d="M50.5841 72.187C50.5841 70.574 49.2765 69.2664 47.6635 69.2664C46.0505 69.2664 44.743 70.574 44.743 72.187C44.743 73.7999 46.0505 75.1075 47.6635 75.1075C49.2765 75.1075 50.5841 73.7999 50.5841 72.187Z" fill="white"></path>
    <path d="M6.4252 47.6542C8.03818 47.6542 9.34576 48.9618 9.34576 50.5748C9.34576 52.1878 8.03818 53.4954 6.4252 53.4954C4.81222 53.4954 3.50464 52.1878 3.50464 50.5748C3.50464 48.9618 4.81222 47.6542 6.4252 47.6542Z" fill="white"></path>
    <path d="M88.9018 47.6542C90.5148 47.6542 91.8224 48.9618 91.8224 50.5748C91.8224 52.1878 90.5148 53.4954 88.9018 53.4954C87.2888 53.4954 85.9813 52.1878 85.9813 50.5748C85.9813 48.9618 87.2888 47.6542 88.9018 47.6542Z" fill="white"></path>
    <path d="M47.6612 3.729C49.2742 3.729 50.5818 5.03658 50.5818 6.64956C50.5818 8.26255 49.2742 9.57013 47.6612 9.57013C46.0482 9.57013 44.7407 8.26255 44.7407 6.64956C44.7407 5.03658 46.0482 3.729 47.6612 3.729Z" fill="white"></path>
  </symbol>
  <symbol fill="none" xmlns="http://www.w3.org/2000/svg" viewBox="0 0 22 35" id="9">
    <path d="M0 10.7098C0 7.3239 1.02153 4.67396 3.10113 2.79699C5.14425 0.92001 7.77113 0 10.9817 0C13.9734 0 16.5273 0.92001 18.7164 2.79699C20.9054 4.67396 22 7.80228 22 12.2555V22.3029C22 26.6089 20.942 29.774 18.8624 31.8718C16.7827 33.9328 13.9735 35 10.471 35C6.53066 35 3.32007 33.4543 0.802658 30.326L4.81589 28.3019C6.05636 30.4733 7.91709 31.5406 10.4345 31.5406C12.5141 31.5406 14.1559 30.878 15.3234 29.5899C16.4909 28.3018 17.1111 25.8728 17.1111 22.3764V17.6288C15.4693 20.1314 12.9154 21.3828 9.52239 21.3828C6.67662 21.3828 4.37811 20.4627 2.62687 18.6594C0.875627 16.856 0 14.2061 0 10.7098ZM4.92534 10.673C4.92534 13.47 5.43611 15.3838 6.45767 16.3775C7.47923 17.3712 8.79271 17.8864 10.4345 17.8864C13.937 17.8864 16.199 16.1199 17.1476 12.6236C17.1476 8.72239 16.5639 6.21972 15.3964 5.11562C14.2289 4.01152 12.7694 3.45953 11.0182 3.45953C9.33993 3.45953 7.91707 4.01152 6.71309 5.11562C5.50911 6.21972 4.92534 8.09674 4.92534 10.673Z" fill="#222222"></path>
  </symbol>
  <symbol fill="none" xmlns="http://www.w3.org/2000/svg" viewBox="0 0 96 82" id="clubs">
    <path d="M67.3244 35.9709C67.7841 36.2727 68.3341 36.4483 68.9252 36.4483C69.3752 36.4483 69.8014 36.3466 70.1821 36.1648L67.3244 35.9709Z" fill="#737373"></path>
    <path d="M66.2647 34.7342L67.2174 31.1583C66.4827 31.6887 66.0046 32.5524 66.0046 33.5278C66.0046 33.958 66.0976 34.3665 66.2647 34.7342Z" fill="#737373"></path>
    <path d="M68.0062 27.1678C68.0731 26.4941 68.1074 25.81 68.1074 25.1168C68.1074 13.8259 58.9544 4.67285 47.6635 4.67285C36.3726 4.67285 27.2196 13.8259 27.2196 25.1168C27.2196 25.81 27.2539 26.4941 27.3208 27.1678C30.434 27.6136 32.8271 30.2912 32.8271 33.5278C32.8271 37.0763 29.9504 39.953 26.4018 39.953C23.9952 39.953 21.8976 38.6298 20.7968 36.6713C11.5823 38.6526 4.67285 46.8503 4.67285 56.6586C4.67285 67.9495 13.8259 77.1025 25.1168 77.1025C32.7148 77.1025 39.3526 72.9582 42.8794 66.7889C41.859 65.6515 41.2383 64.1481 41.2383 62.4997C41.2383 58.9512 44.1149 56.0745 47.6635 56.0745C51.2121 56.0745 54.0887 58.9512 54.0887 62.4997C54.0887 64.1481 53.468 65.6515 52.4476 66.7889C55.9744 72.9582 62.6122 77.1025 70.2102 77.1025C81.5011 77.1025 90.6542 67.9495 90.6542 56.6586C90.6542 46.8503 83.7447 38.6526 74.5302 36.6713C73.4294 38.6298 71.3318 39.953 68.9252 39.953C65.3766 39.953 62.5 37.0763 62.5 33.5278C62.5 30.2912 64.893 27.6136 68.0062 27.1678Z" fill="#737373"></path>
    <path d="M50.5406 63.0042C50.5692 62.8404 50.5841 62.6718 50.5841 62.4997C50.5841 61.3755 49.9489 60.3997 49.0178 59.9115L50.5406 63.0042Z" fill="#737373"></path>
    <path d="M46.3092 59.9115C45.3781 60.3997 44.7429 61.3755 44.7429 62.4997C44.7429 62.6718 44.7578 62.8404 44.7864 63.0042L46.3092 59.9115Z" fill="#737373"></path>
    <path d="M25.1449 36.1648C25.5256 36.3466 25.9518 36.4483 26.4018 36.4483C26.9929 36.4483 27.5429 36.2727 28.0026 35.9709L25.1449 36.1648Z" fill="#737373"></path>
    <path d="M29.0623 34.7342C29.2294 34.3665 29.3224 33.958 29.3224 33.5278C29.3224 32.5524 28.8443 31.6887 28.1096 31.1583L29.0623 34.7342Z" fill="#737373"></path>
    <path fill-rule="evenodd" clip-rule="evenodd" d="M44.817 72.241C45.6486 71.191 46.3981 70.073 47.0557 68.8966C47.2558 68.9154 47.4585 68.925 47.6636 68.925C47.8686 68.925 48.0713 68.9154 48.2714 68.8966C48.929 70.073 49.6785 71.191 50.5101 72.241C55.1106 78.0493 62.2253 81.7755 70.2103 81.7755C84.0819 81.7755 95.3271 70.5303 95.3271 56.6586C95.3271 44.9832 87.3608 35.1684 76.5671 32.3532C76.1082 32.2336 75.6443 32.1265 75.1756 32.0325C74.804 30.4735 73.8642 29.1348 72.5872 28.2475C72.6396 27.8258 72.6816 27.4008 72.7128 26.9728C72.7576 26.36 72.7804 25.7411 72.7804 25.1168C72.7804 11.2452 61.5352 0 47.6636 0C33.7919 0 22.5467 11.2452 22.5467 25.1168C22.5467 25.7411 22.5695 26.36 22.6143 26.9728C22.6455 27.4008 22.6875 27.8258 22.7399 28.2475C21.4629 29.1348 20.5231 30.4735 20.1515 32.0325C19.6828 32.1265 19.2189 32.2335 18.76 32.3532C7.96634 35.1684 0 44.9832 0 56.6586C0 70.5303 11.2452 81.7755 25.1168 81.7755C33.1018 81.7755 40.2165 78.0493 44.817 72.241ZM68.9252 36.4484C68.3342 36.4484 67.7841 36.2728 67.3244 35.971C66.8642 35.6688 66.4944 35.24 66.2647 34.7342C66.0977 34.3665 66.0047 33.958 66.0047 33.5278C66.0047 32.5525 66.4828 31.6888 67.2174 31.1583C67.6977 30.8116 68.2876 30.6072 68.9252 30.6072C70.5382 30.6072 71.8458 31.9148 71.8458 33.5278C71.8458 34.6908 71.166 35.695 70.1821 36.1648C69.8014 36.3466 69.3752 36.4484 68.9252 36.4484ZM62.5 33.5278C62.5 30.2913 64.893 27.6137 68.0062 27.1678C68.0731 26.4941 68.1075 25.81 68.1075 25.1168C68.1075 13.826 58.9544 4.6729 47.6636 4.6729C36.3727 4.6729 27.2196 13.826 27.2196 25.1168C27.2196 25.81 27.254 26.4941 27.3209 27.1678C30.4341 27.6137 32.8271 30.2913 32.8271 33.5278C32.8271 37.0764 29.9504 39.953 26.4019 39.953C23.9952 39.953 21.8976 38.6299 20.7968 36.6714C11.5823 38.6526 4.6729 46.8504 4.6729 56.6586C4.6729 67.9495 13.826 77.1026 25.1168 77.1026C32.7148 77.1026 39.3527 72.9582 42.8795 66.7889C41.859 65.6515 41.2383 64.1481 41.2383 62.4998C41.2383 58.9512 44.115 56.0745 47.6636 56.0745C51.2121 56.0745 54.0888 58.9512 54.0888 62.4998C54.0888 64.1481 53.4681 65.6515 52.4476 66.7889C55.9744 72.9582 62.6123 77.1026 70.2103 77.1026C81.5012 77.1026 90.6542 67.9495 90.6542 56.6586C90.6542 46.8504 83.7448 38.6526 74.5303 36.6714C73.4295 38.6299 71.3319 39.953 68.9252 39.953C65.3767 39.953 62.5 37.0764 62.5 33.5278ZM50.5841 62.4998C50.5841 62.6718 50.5692 62.8404 50.5407 63.0043C50.3017 64.3768 49.1045 65.4203 47.6636 65.4203C46.2226 65.4203 45.0254 64.3768 44.7864 63.0043C44.7579 62.8404 44.743 62.6718 44.743 62.4998C44.743 61.3756 45.3782 60.3997 46.3092 59.9115C46.714 59.6993 47.1748 59.5792 47.6636 59.5792C48.1523 59.5792 48.6131 59.6993 49.0179 59.9115C49.9489 60.3997 50.5841 61.3756 50.5841 62.4998ZM25.145 36.1648C25.5257 36.3466 25.9519 36.4484 26.4019 36.4484C26.9929 36.4484 27.543 36.2728 28.0027 35.971C28.4629 35.6688 28.8327 35.24 29.0624 34.7342C29.2294 34.3665 29.3224 33.958 29.3224 33.5278C29.3224 32.5525 28.8443 31.6888 28.1097 31.1583C27.6294 30.8116 27.0395 30.6072 26.4019 30.6072C24.7889 30.6072 23.4813 31.9148 23.4813 33.5278C23.4813 34.6908 24.1611 35.695 25.145 36.1648Z" fill="#2C2C2C"></path>
    <path d="M29.3223 33.5277C29.3223 35.1407 28.0147 36.4483 26.4018 36.4483C24.7888 36.4483 23.4812 35.1407 23.4812 33.5277C23.4812 31.9148 24.7888 30.6072 26.4018 30.6072C28.0147 30.6072 29.3223 31.9148 29.3223 33.5277Z" fill="white"></path>
    <path d="M71.8457 33.5277C71.8457 35.1407 70.5381 36.4483 68.9251 36.4483C67.3121 36.4483 66.0046 35.1407 66.0046 33.5277C66.0046 31.9148 67.3121 30.6072 68.9251 30.6072C70.5381 30.6072 71.8457 31.9148 71.8457 33.5277Z" fill="white"></path>
    <path d="M47.6634 65.4203C49.2764 65.4203 50.584 64.1127 50.584 62.4997C50.584 60.8867 49.2764 59.5791 47.6634 59.5791C46.0505 59.5791 44.7429 60.8867 44.7429 62.4997C44.7429 64.1127 46.0505 65.4203 47.6634 65.4203Z" fill="white"></path>
  </symbol>
  <symbol fill="none" xmlns="http://www.w3.org/2000/svg" viewBox="0 0 23 35" id="8">
    <path d="M11.4638 35C8.17295 35 5.42456 34.1895 3.25475 32.5316C1.08494 30.8737 0 28.6632 0 25.9C0 21.7 2.49527 18.4948 7.44968 16.2843C3.25471 14 1.15726 11.3105 1.15726 8.17895C1.15726 5.71053 2.13365 3.72111 4.12264 2.24743C6.11163 0.773743 8.53458 0 11.4638 0C14.4292 0 16.8884 0.736901 18.8774 2.24743C20.8664 3.75795 21.8428 5.74737 21.8428 8.17895C21.8428 11.2737 19.7453 13.9632 15.5503 16.2843C20.5047 18.4948 23 21.7 23 25.9C23 28.7 21.9151 30.9106 19.7453 32.5316C17.5755 34.1527 14.827 35 11.4638 35ZM11.4638 18.4211C7.05188 20.1158 4.8459 22.5843 4.8459 25.8632C4.8459 27.9264 5.46071 29.3632 6.69027 30.2474C7.91983 31.0948 9.511 31.5369 11.4638 31.5369C13.4528 31.5369 15.0802 31.0948 16.3098 30.2474C17.5393 29.4001 18.1541 27.9264 18.1541 25.8632C18.1541 22.6211 15.9119 20.1158 11.4638 18.4211ZM11.4638 3.4264C9.87263 3.4264 8.57076 3.83161 7.52202 4.64214C6.50944 5.45267 6.00316 6.63158 6.00316 8.17895C6.00316 10.6842 7.81131 12.8211 11.4638 14.5527C15.1525 12.7843 16.9607 10.6842 16.9607 8.17895C16.9607 6.63158 16.4544 5.45267 15.4418 4.64214C14.4293 3.83161 13.1274 3.4264 11.4638 3.4264Z" fill="#222222"></path>
  </symbol>
  <symbol fill="none" xmlns="http://www.w3.org/2000/svg" viewBox="0 0 21 34" id="j">
    <path d="M20.9633 23.4771C20.9633 27.1057 19.9721 29.7909 17.9528 31.46C15.9336 33.1292 13.4371 34 10.5 34C7.70981 34 5.28673 33.1655 3.15735 31.46C1.06469 29.7909 0 27.1057 0 23.4771V18.5784H4.91958V23.5134C4.91958 26.1986 5.47027 28.0492 6.57167 29.1015C7.67307 30.1538 8.95807 30.6254 10.5 30.6254C12.1888 30.6254 13.5472 30.1175 14.5752 29.1015C15.6031 28.0855 16.0804 26.2348 16.0804 23.5134V0H21V23.4771H20.9633Z" fill="#222222"></path>
  </symbol>
  <symbol fill="none" xmlns="http://www.w3.org/2000/svg" viewBox="0 0 23 34" id="k">
    <path d="M4.93119 0.0734264V16.2848L12.4384 7.8123C15.1248 4.80475 16.5232 2.4941 16.6336 0.84362L16.7072 0.0734264H21.6384L21.5648 1.21042C21.3808 3.11764 19.6144 5.97846 16.2288 9.79291L11.6656 15.001L18.216 23.5469C21.16 27.3614 22.7424 30.3689 22.8896 32.4962L23 34H18.0688L17.9952 32.8263C17.848 30.8457 16.6336 28.3517 14.3152 25.3808L8.3904 17.7152L4.93119 21.6396V33.9633H0V0H4.93119V0.0734264Z" fill="#222222"></path>
  </symbol>
  <symbol fill="none" xmlns="http://www.w3.org/2000/svg" viewBox="0 0 22 41" id="q">
    <path d="M22 24.6299C22 29.825 19.9491 33.1887 15.8474 34.7211L19.0915 41H13.7966L11 35.5433C7.75591 35.5433 5.10849 34.6463 3.05765 32.8896C1.00681 31.133 0 28.3674 0 24.5926V10.9134C0 7.13861 1.00681 4.37288 3.05765 2.61627C5.10849 0.859663 7.75591 0 11 0C14.244 0 16.8915 0.859663 18.9424 2.61627C20.9932 4.37288 22 7.13861 22 10.9134V24.6299ZM17.0034 24.4431V10.9882C17.0034 8.14768 16.4813 6.20417 15.4 5.12031C14.3186 4.07382 12.8271 3.55064 10.9627 3.55064C9.0983 3.55064 7.6068 4.07382 6.56274 5.12031C5.51867 6.1668 4.99659 8.14768 4.99659 10.9882V24.4431C4.99659 27.433 5.51867 29.4512 6.56274 30.4977C7.6068 31.5442 9.09828 32.0675 11 32.0675C12.8644 32.0675 14.3186 31.5442 15.4 30.4977C16.4813 29.4139 17.0034 27.3957 17.0034 24.4431Z" fill="#222222"></path>
  </symbol>
  <symbol fill="none" xmlns="http://www.w3.org/2000/svg" viewBox="0 0 22 35" id="6">
    <path d="M22 24.327C22 27.7129 20.9784 30.3628 18.8988 32.203C16.8557 34.08 14.2288 35 11.0182 35C8.02653 35 5.47266 34.08 3.28361 32.203C1.09456 30.326 0 27.1977 0 22.7445V12.6971C0 8.39112 1.05804 5.22611 3.13764 3.12832C5.21724 1.03052 8.02647 0 11.529 0C15.4692 0 18.6799 1.5457 21.1973 4.674L17.1841 6.84539C15.9436 4.60038 14.0829 3.49626 11.5655 3.49626C9.48588 3.49626 7.8441 4.15875 6.67661 5.48368C5.50911 6.8086 4.88892 9.20083 4.88892 12.734V17.4816C6.64016 14.979 9.15752 13.7276 12.4776 13.7276C15.3233 13.7276 17.6219 14.6478 19.3731 16.4511C21.1244 18.2545 22 20.8307 22 24.327ZM17.1111 24.2903C17.1111 21.53 16.6003 19.653 15.5788 18.6225C14.5572 17.6288 13.2438 17.1136 11.602 17.1136C8.09951 17.1136 5.87392 18.733 4.92533 21.9717C4.92533 26.1305 5.50911 28.7434 6.67661 29.8475C7.8441 30.9516 9.30351 31.5037 11.0548 31.5037C12.733 31.5037 14.1924 30.9516 15.3599 29.8475C16.5273 28.7434 17.1111 26.9033 17.1111 24.2903Z" fill="#222222"></path>
  </symbol>
  <symbol fill="none" xmlns="http://www.w3.org/2000/svg" viewBox="0 0 23 34" id="a">
    <path d="M4.85356 32.0928V34H0V32.0928C0 28.8285 1.23149 23.3635 3.73071 15.6613L8.76535 0H14.2347L19.2693 15.6613C21.7685 23.3635 23 28.8285 23 32.0928V34H18.1465V32.0928C18.1465 30.5524 17.8567 28.5351 17.3134 26.041H5.65039C5.1433 28.5718 4.85356 30.589 4.85356 32.0928ZM11.5181 6.05176L7.89607 17.7886C7.31654 19.6225 6.84567 21.273 6.44724 22.8134H16.589C16.1906 21.273 15.7197 19.5858 15.1402 17.7886L11.5181 6.05176Z" fill="#222222"></path>
  </symbol>
  <symbol fill="none" xmlns="http://www.w3.org/2000/svg" viewBox="0 0 22 34" id="7">
    <path d="M14.8141 16.7796C12.0134 21.0756 10.5026 25.6652 10.3552 30.5853L10.2077 34H5.26971L5.41709 30.3283C5.60134 25.5551 7.48076 20.4146 11.0184 14.9438L14.9983 8.77534C16.3987 6.68246 17.062 4.84657 17.062 3.23101H0V0H22V1.57881C22 4.3326 20.9314 7.38012 18.7572 10.648L14.8141 16.7796Z" fill="#222222"></path>
  </symbol>
  <symbol fill="none" xmlns="http://www.w3.org/2000/svg" viewBox="0 0 96 82" id="hearts">
    <path d="M53.8938 8.23576C62.6239 3.22209 73.6277 3.02888 81.4068 10.9252C85.4076 14.9863 87.2602 19.9923 87.3706 25.1835C84.5614 25.8704 82.4767 28.4043 82.4767 31.4252C82.4767 33.5045 83.4644 35.3531 84.9962 36.5275C83.8093 39.2417 82.2058 41.8499 80.2485 44.2347C72.2462 53.9849 61.5947 62.5037 51.221 70.0005C50.202 69.3212 48.9779 68.9252 47.6613 68.9252C46.3457 68.9252 45.1225 69.3206 44.104 69.999C33.731 62.5025 23.0804 53.9843 15.0787 44.2347C13.1214 41.8499 11.5179 39.2417 10.3309 36.5275C11.8628 35.3531 12.8505 33.5045 12.8505 31.4252C12.8505 28.4043 10.7658 25.8704 7.95654 25.1835C8.06696 19.9923 9.91957 14.9863 13.9204 10.9252C21.6994 3.02898 32.7033 3.22202 41.4334 8.2357C41.306 8.74037 41.2384 9.2688 41.2384 9.81303C41.2384 13.3616 44.115 16.2383 47.6636 16.2383C51.2122 16.2383 54.0888 13.3616 54.0888 9.81303C54.0888 9.26882 54.0212 8.74041 53.8938 8.23576Z" fill="#F24E1E"></path>
    <path d="M47.9703 72.4461C47.9702 72.4462 47.9703 72.4461 47.9703 72.4461C47.8687 72.4354 47.7657 72.43 47.6613 72.43C47.5583 72.43 47.4566 72.4353 47.3563 72.4457C47.3563 72.4457 47.3564 72.4457 47.3563 72.4457C47.4072 72.4404 47.4583 72.4363 47.5099 72.4337C47.56 72.4312 47.6105 72.43 47.6613 72.43C47.7135 72.43 47.7655 72.4312 47.817 72.4339C47.8685 72.4366 47.9195 72.4408 47.9703 72.4461Z" fill="#F24E1E"></path>
    <path d="M47.987 12.7159C47.7421 12.7293 47.5851 12.7293 47.3402 12.7159C47.4464 12.7276 47.5543 12.7336 47.6636 12.7336C47.7729 12.7336 47.8808 12.7276 47.987 12.7159Z" fill="#F24E1E"></path>
    <path d="M87.1458 29.0914C87.1415 29.0946 87.1372 29.0978 87.1329 29.1011C86.783 29.3679 86.4951 29.7119 86.2947 30.1077C86.4976 29.7071 86.7901 29.3594 87.1458 29.0914C87.1458 29.0914 87.1458 29.0913 87.1458 29.0914Z" fill="#F24E1E"></path>
    <path d="M8.18136 29.0913C8.18566 29.0946 8.18995 29.0978 8.19423 29.1011C8.81281 29.5727 9.2375 30.2855 9.32785 31.0993C9.23685 30.28 8.80687 29.5628 8.18136 29.0913C8.18137 29.0914 8.18136 29.0913 8.18136 29.0913Z" fill="#F24E1E"></path>
    <path fill-rule="evenodd" clip-rule="evenodd" d="M92.0548 25.8255C92.1157 19.349 89.9442 12.929 84.7325 7.63881C74.9161 -2.32544 61.4037 -1.60101 51.176 4.43201C50.1665 3.77173 48.9599 3.38785 47.6636 3.38785C46.3673 3.38785 45.1607 3.77172 44.1512 4.43198C33.9235 -1.60112 20.4109 -2.3253 10.5947 7.63881C5.38296 12.929 3.21143 19.349 3.27227 25.8255C1.31891 26.9277 0 29.0224 0 31.4252C0 34.7716 2.55827 37.5205 5.82575 37.8229C7.22815 41.1978 9.15443 44.3853 11.4694 47.206C19.8649 57.4354 30.933 66.2546 41.4175 73.828C41.2989 74.3161 41.236 74.8259 41.236 75.3505C41.236 78.899 44.1127 81.7757 47.6613 81.7757C51.2098 81.7757 54.0865 78.899 54.0865 75.3505C54.0865 74.8269 54.0239 74.318 53.9057 73.8308C64.3914 66.2568 75.4612 57.4366 83.8577 47.206C86.1727 44.3853 88.0989 41.1978 89.5014 37.8229C92.7688 37.5205 95.3271 34.7716 95.3271 31.4252C95.3271 29.0224 94.0082 26.9277 92.0548 25.8255ZM81.4067 10.9253C73.6276 3.02893 62.6238 3.22214 53.8938 8.23581C54.0211 8.74046 54.0888 9.26887 54.0888 9.81308C54.0888 13.3616 51.2121 16.2383 47.6636 16.2383C44.115 16.2383 41.2383 13.3616 41.2383 9.81308C41.2383 9.26885 41.306 8.74042 41.4334 8.23575C32.7033 3.22207 21.6994 3.02903 13.9204 10.9253C9.91954 14.9864 8.06692 19.9924 7.95651 25.1836C10.7657 25.8704 12.8505 28.4044 12.8505 31.4252C12.8505 33.5046 11.8628 35.3532 10.3309 36.5275C11.5179 39.2417 13.1214 41.8499 15.0786 44.2347C23.0804 53.9843 33.731 62.5025 44.104 69.999C45.1225 69.3206 46.3457 68.9252 47.6613 68.9252C48.9779 68.9252 50.202 69.3212 51.221 70.0006C61.5946 62.5038 72.2462 53.985 80.2485 44.2347C82.2057 41.8499 83.8092 39.2417 84.9962 36.5275C83.4644 35.3532 82.4766 33.5046 82.4766 31.4252C82.4766 28.4044 84.5614 25.8704 87.3706 25.1836C87.2602 19.9924 85.4076 14.9864 81.4067 10.9253ZM47.3336 12.7152C46.1127 12.5779 45.1196 11.688 44.8292 10.5203C44.7729 10.2938 44.743 10.0569 44.743 9.81308C44.743 8.2001 46.0506 6.89252 47.6636 6.89252C49.2765 6.89252 50.5841 8.2001 50.5841 9.81308C50.5841 10.057 50.5542 10.2939 50.4979 10.5203C50.2075 11.688 49.2144 12.578 47.9935 12.7152C47.8852 12.7274 47.7751 12.7336 47.6636 12.7336C47.552 12.7336 47.4419 12.7274 47.3336 12.7152ZM47.5098 72.4338C47.56 72.4312 47.6105 72.4299 47.6613 72.4299C47.7135 72.4299 47.7654 72.4313 47.817 72.434C49.3576 72.5149 50.5818 73.7897 50.5818 75.3505C50.5818 75.692 50.5232 76.0199 50.4154 76.3246C50.0146 77.4579 48.934 78.2701 47.6636 78.271C47.6628 78.271 47.662 78.271 47.6613 78.271C46.3883 78.271 45.3055 77.4565 44.9056 76.3203C44.7988 76.0168 44.7407 75.6904 44.7407 75.3505C44.7407 73.7883 45.9672 72.5126 47.5098 72.4338ZM3.50467 31.4252C3.50467 31.0736 3.56682 30.7365 3.68072 30.4242C4.08931 29.3043 5.16389 28.5047 6.42523 28.5047C7.0902 28.5047 7.70326 28.7269 8.1942 29.1012C8.89411 29.6347 9.34579 30.4772 9.34579 31.4252C9.34579 31.9312 9.21714 32.4071 8.99076 32.822C8.49544 33.7299 7.53227 34.3458 6.42523 34.3458C5.60993 34.3458 4.87265 34.0117 4.34283 33.473C3.82446 32.9459 3.50467 32.2229 3.50467 31.4252ZM86.3363 32.822C86.11 32.4071 85.9813 31.9312 85.9813 31.4252C85.9813 30.4772 86.433 29.6347 87.1329 29.1012C87.6238 28.7269 88.2369 28.5047 88.9019 28.5047C90.1632 28.5047 91.2378 29.3043 91.6464 30.4242C91.7603 30.7365 91.8224 31.0736 91.8224 31.4252C91.8224 32.2229 91.5026 32.9459 90.9843 33.473C90.4545 34.0117 89.7172 34.3458 88.9019 34.3458C87.7948 34.3458 86.8317 33.7299 86.3363 32.822Z" fill="#2C2C2C"></path>
    <path d="M47.6635 12.7337C49.2765 12.7337 50.5841 11.4261 50.5841 9.81314C50.5841 8.20016 49.2765 6.89258 47.6635 6.89258C46.0505 6.89258 44.743 8.20016 44.743 9.81314C44.743 11.4261 46.0505 12.7337 47.6635 12.7337Z" fill="white"></path>
    <path d="M6.4252 34.3458C8.03818 34.3458 9.34576 33.0383 9.34576 31.4253C9.34576 29.8123 8.03818 28.5047 6.4252 28.5047C4.81222 28.5047 3.50464 29.8123 3.50464 31.4253C3.50464 33.0383 4.81222 34.3458 6.4252 34.3458Z" fill="white"></path>
    <path d="M88.9018 34.3458C90.5148 34.3458 91.8224 33.0383 91.8224 31.4253C91.8224 29.8123 90.5148 28.5047 88.9018 28.5047C87.2889 28.5047 85.9813 29.8123 85.9813 31.4253C85.9813 33.0383 87.2889 34.3458 88.9018 34.3458Z" fill="white"></path>
    <path d="M50.5818 75.3505C50.5818 76.9635 49.2742 78.2711 47.6612 78.2711C46.0483 78.2711 44.7407 76.9635 44.7407 75.3505C44.7407 73.7375 46.0483 72.43 47.6612 72.43C49.2742 72.43 50.5818 73.7375 50.5818 75.3505Z" fill="white"></path>
  </symbol>
  <symbol fill="none" xmlns="http://www.w3.org/2000/svg" viewBox="0 0 71 82" id="diamonds">
    <path d="M31.243 70.17L10.365 45.8471C11.8774 44.6716 12.8504 42.835 12.8504 40.7711C12.8504 38.7839 11.9483 37.0074 10.5311 35.8288L31.2559 11.6154C32.3181 12.3921 33.6277 12.8506 35.0444 12.8506C36.4624 12.8506 37.7731 12.3913 38.8358 11.6133L59.5623 35.8287C58.1452 37.0073 57.243 38.7839 57.243 40.7711C57.243 42.835 58.216 44.6716 59.7284 45.8471L38.8487 70.1721C37.7837 69.3884 36.4681 68.9253 35.0444 68.9253C33.622 68.9253 32.3075 69.3876 31.243 70.17Z" fill="#F24E1E"></path>
    <path fill-rule="evenodd" clip-rule="evenodd" d="M5.60502 34.3977L28.6958 7.42004C28.6454 7.09582 28.6192 6.76358 28.6192 6.42523C28.6192 2.87668 31.4959 0 35.0444 0H35.0467C38.5942 0.00123273 41.4697 2.87744 41.4697 6.42523C41.4697 6.76201 41.4438 7.09273 41.3938 7.41552L64.4884 34.3977C67.6497 34.8004 70.0935 37.5003 70.0935 40.771C70.0935 40.8287 70.0927 40.8862 70.0912 40.9435L70.0935 40.9462L70.091 40.949C70.0074 44.0259 67.7605 46.5629 64.8164 47.094L41.3966 74.3781C41.4447 74.6952 41.4697 75.0199 41.4697 75.3505C41.4697 78.8983 38.5942 81.7745 35.0467 81.7757H35.0444C31.4959 81.7757 28.6192 78.899 28.6192 75.3505C28.6192 75.0184 28.6444 74.6921 28.693 74.3736L5.27706 47.094C2.33293 46.5629 0.0860917 44.0259 0.00241701 40.949L0 40.9462L0.00227058 40.9435C0.000760017 40.8862 0 40.8287 0 40.771C0 37.5003 2.44379 34.8004 5.60502 34.3977ZM31.243 70.1699L10.365 45.847C11.8774 44.6715 12.8505 42.8349 12.8505 40.771C12.8505 38.7838 11.9483 37.0072 10.5311 35.8286L31.2559 11.6152C32.3181 12.392 33.6277 12.8505 35.0444 12.8505C36.4624 12.8505 37.7731 12.3911 38.8358 11.6132L59.5624 35.8286C58.1452 37.0072 57.243 38.7838 57.243 40.771C57.243 42.8349 58.2161 44.6715 59.7284 45.847L38.8487 70.172C37.7837 69.3883 36.4681 68.9252 35.0444 68.9252C33.622 68.9252 32.3075 69.3875 31.243 70.1699ZM35.0444 9.34579C34.4983 9.34579 33.9872 9.19589 33.5499 8.93497C32.6959 8.4253 32.1239 7.49207 32.1239 6.42523C32.1239 4.81225 33.4315 3.50467 35.0444 3.50467C36.6574 3.50467 37.965 4.81225 37.965 6.42523C37.965 7.49081 37.3943 8.4231 36.542 8.93317C36.1041 9.19519 35.5919 9.34579 35.0444 9.34579ZM33.5404 72.8464C32.6917 73.3573 32.1239 74.2876 32.1239 75.3505C32.1239 76.9635 33.4315 78.271 35.0444 78.271C36.6574 78.271 37.965 76.9635 37.965 75.3505C37.965 74.2889 37.3986 73.3595 36.5515 72.8483C36.1115 72.5827 35.5958 72.4299 35.0444 72.4299C34.4943 72.4299 33.9797 72.582 33.5404 72.8464ZM9.34579 40.771C9.34579 41.7713 8.84292 42.6542 8.07618 43.1805C7.60655 43.5029 7.03792 43.6916 6.42523 43.6916C4.81225 43.6916 3.50467 42.384 3.50467 40.771C3.50467 39.158 4.81225 37.8505 6.42523 37.8505C7.11637 37.8505 7.75143 38.0905 8.25158 38.4918C8.9187 39.0271 9.34579 39.8492 9.34579 40.771ZM62.0173 43.1805C61.2505 42.6542 60.7477 41.7713 60.7477 40.771C60.7477 39.8492 61.1748 39.0271 61.8419 38.4918C62.342 38.0905 62.9771 37.8505 63.6682 37.8505C65.2812 37.8505 66.5888 39.158 66.5888 40.771C66.5888 42.384 65.2812 43.6916 63.6682 43.6916C63.0555 43.6916 62.4869 43.5029 62.0173 43.1805Z" fill="#2C2C2C"></path>
    <path d="M35.0444 3.50464C36.6574 3.50464 37.965 4.81222 37.965 6.4252C37.965 8.03818 36.6574 9.34576 35.0444 9.34576C33.4314 9.34576 32.1239 8.03818 32.1239 6.4252C32.1239 4.81222 33.4314 3.50464 35.0444 3.50464Z" fill="white"></path>
    <path d="M6.4252 37.8504C8.03818 37.8504 9.34576 39.158 9.34576 40.771C9.34576 42.384 8.03818 43.6916 6.4252 43.6916C4.81222 43.6916 3.50464 42.384 3.50464 40.771C3.50464 39.158 4.81222 37.8504 6.4252 37.8504Z" fill="white"></path>
    <path d="M63.6682 37.8504C65.2812 37.8504 66.5887 39.158 66.5887 40.771C66.5887 42.384 65.2812 43.6916 63.6682 43.6916C62.0552 43.6916 60.7476 42.384 60.7476 40.771C60.7476 39.158 62.0552 37.8504 63.6682 37.8504Z" fill="white"></path>
    <path d="M37.965 75.3504C37.965 76.9634 36.6574 78.271 35.0444 78.271C33.4314 78.271 32.1239 76.9634 32.1239 75.3504C32.1239 73.7374 33.4314 72.4299 35.0444 72.4299C36.6574 72.4299 37.965 73.7374 37.965 75.3504Z" fill="white"></path>
  </symbol>
</svg>

<svg class="icon">
  <use xlink:href="#10"></use>
</svg><svg class="icon">
  <use xlink:href="#spades"></use>
</svg><svg class="icon">
  <use xlink:href="#9"></use>
</svg><svg class="icon">
  <use xlink:href="#clubs"></use>
</svg><svg class="icon">
  <use xlink:href="#8"></use>
</svg><svg class="icon">
  <use xlink:href="#j"></use>
</svg><svg class="icon">
  <use xlink:href="#k"></use>
</svg><svg class="icon">
  <use xlink:href="#q"></use>
</svg><svg class="icon">
  <use xlink:href="#6"></use>
</svg><svg class="icon">
  <use xlink:href="#a"></use>
</svg><svg class="icon">
  <use xlink:href="#7"></use>
</svg><svg class="icon">
  <use xlink:href="#hearts"></use>
</svg><svg class="icon">
  <use xlink:href="#diamonds"></use>
</svg>