<svg width="220" height="46" viewBox="0 0 220 46" fill="none" xmlns="http://www.w3.org/2000/svg">
<path d="M28 15.6875C28.2242 15.6875 28.4062 15.8695 28.4062 16.0938C28.4062 16.318 28.2234 16.5 28 16.5C23.6718 16.5 19.875 18.7782 19.875 21.375C19.875 21.5992 19.693 21.7812 19.4688 21.7812C19.2445 21.7812 19.0625 21.5992 19.0625 21.375C19.0625 18.2924 23.1551 15.6875 28 15.6875ZM28 11.625C20.8199 11.625 15 15.9906 15 21.375C15 24.7282 17.2579 27.6849 20.694 29.4399C20.694 29.4618 20.6875 29.4764 20.6875 29.5C20.6875 30.9568 19.5996 32.5249 19.121 33.348C19.1218 33.348 19.1226 33.348 19.1226 33.348C19.0844 33.4374 19.0625 33.5357 19.0625 33.6389C19.0625 34.0451 19.3916 34.375 19.7986 34.375C19.875 34.375 20.0091 34.3547 20.0058 34.3636C22.5449 33.9476 24.9369 31.6149 25.4926 30.9389C26.3043 31.0584 27.1412 31.125 28 31.125C35.1784 31.125 41 26.7594 41 21.375C41 15.9906 35.1793 11.625 28 11.625ZM28 29.5C27.2549 29.5 26.4904 29.4431 25.7283 29.3318C25.6494 29.3188 25.5706 29.3147 25.4926 29.3147C25.01 29.3147 24.5477 29.5293 24.2365 29.9079C23.8888 30.3312 22.8991 31.2761 21.7299 31.9708C22.0468 31.2436 22.2946 30.4287 22.3117 29.5886C22.3166 29.5366 22.319 29.4837 22.319 29.4391C22.319 28.8281 21.9769 28.2699 21.4334 27.992C18.4223 26.4547 16.625 23.9807 16.625 21.375C16.625 16.8949 21.7275 13.25 28 13.25C34.2709 13.25 39.375 16.8949 39.375 21.375C39.375 25.8551 34.2717 29.5 28 29.5Z" fill="#4F4F4F"/>
<path d="M67.688 29.096C66.8453 29.096 66.0667 28.9573 65.352 28.68C64.6373 28.392 64.0187 27.992 63.496 27.48C62.9733 26.968 62.5627 26.3653 62.264 25.672C61.976 24.9787 61.832 24.2213 61.832 23.4C61.832 22.5787 61.976 21.8213 62.264 21.128C62.5627 20.4347 62.9733 19.832 63.496 19.32C64.0293 18.808 64.6533 18.4133 65.368 18.136C66.0827 17.848 66.8613 17.704 67.704 17.704C68.5147 17.704 69.2773 17.8427 69.992 18.12C70.7067 18.3867 71.3093 18.792 71.8 19.336L71.048 20.088C70.5893 19.6187 70.0827 19.2827 69.528 19.08C68.9733 18.8667 68.376 18.76 67.736 18.76C67.064 18.76 66.44 18.8773 65.864 19.112C65.288 19.336 64.7867 19.6613 64.36 20.088C63.9333 20.504 63.5973 20.9947 63.352 21.56C63.1173 22.1147 63 22.728 63 23.4C63 24.072 63.1173 24.6907 63.352 25.256C63.5973 25.8107 63.9333 26.3013 64.36 26.728C64.7867 27.144 65.288 27.4693 65.864 27.704C66.44 27.928 67.064 28.04 67.736 28.04C68.376 28.04 68.9733 27.9333 69.528 27.72C70.0827 27.5067 70.5893 27.1653 71.048 26.696L71.8 27.448C71.3093 27.992 70.7067 28.4027 69.992 28.68C69.2773 28.9573 68.5093 29.096 67.688 29.096ZM78.372 20.52C79.0547 20.52 79.652 20.6533 80.164 20.92C80.6867 21.176 81.092 21.5707 81.38 22.104C81.6787 22.6373 81.828 23.3093 81.828 24.12V29H80.692V24.232C80.692 23.3467 80.468 22.68 80.02 22.232C79.5827 21.7733 78.964 21.544 78.164 21.544C77.5667 21.544 77.044 21.6667 76.596 21.912C76.1587 22.1467 75.8173 22.4933 75.572 22.952C75.3373 23.4 75.22 23.944 75.22 24.584V29H74.084V17.128H75.22V22.904L74.996 22.472C75.2627 21.864 75.6893 21.3893 76.276 21.048C76.8627 20.696 77.5613 20.52 78.372 20.52ZM90.1605 29V27.144L90.1125 26.84V23.736C90.1125 23.0213 89.9098 22.472 89.5045 22.088C89.1098 21.704 88.5178 21.512 87.7285 21.512C87.1845 21.512 86.6672 21.6027 86.1765 21.784C85.6858 21.9653 85.2698 22.2053 84.9285 22.504L84.4165 21.656C84.8432 21.2933 85.3552 21.016 85.9525 20.824C86.5498 20.6213 87.1792 20.52 87.8405 20.52C88.9285 20.52 89.7658 20.792 90.3525 21.336C90.9498 21.8693 91.2485 22.6853 91.2485 23.784V29H90.1605ZM87.2645 29.08C86.6352 29.08 86.0858 28.9787 85.6165 28.776C85.1578 28.5627 84.8058 28.2747 84.5605 27.912C84.3152 27.5387 84.1925 27.112 84.1925 26.632C84.1925 26.1947 84.2938 25.8 84.4965 25.448C84.7098 25.0853 85.0512 24.7973 85.5205 24.584C86.0005 24.36 86.6405 24.248 87.4405 24.248H90.3365V25.096H87.4725C86.6618 25.096 86.0965 25.24 85.7765 25.528C85.4672 25.816 85.3125 26.1733 85.3125 26.6C85.3125 27.08 85.4992 27.464 85.8725 27.752C86.2458 28.04 86.7685 28.184 87.4405 28.184C88.0805 28.184 88.6298 28.04 89.0885 27.752C89.5578 27.4533 89.8992 27.0267 90.1125 26.472L90.3685 27.256C90.1552 27.8107 89.7818 28.2533 89.2485 28.584C88.7258 28.9147 88.0645 29.08 87.2645 29.08ZM96.99 29.08C96.2007 29.08 95.5927 28.8667 95.166 28.44C94.7393 28.0133 94.526 27.4107 94.526 26.632V18.744H95.662V26.568C95.662 27.0587 95.7847 27.4373 96.03 27.704C96.286 27.9707 96.6487 28.104 97.118 28.104C97.6193 28.104 98.0353 27.96 98.366 27.672L98.766 28.488C98.542 28.6907 98.27 28.84 97.95 28.936C97.6407 29.032 97.3207 29.08 96.99 29.08ZM93.022 21.544V20.6H98.222V21.544H93.022ZM103.09 29.08C102.397 29.08 101.741 28.984 101.122 28.792C100.503 28.5893 100.018 28.3387 99.666 28.04L100.178 27.144C100.519 27.4 100.957 27.624 101.49 27.816C102.023 27.9973 102.583 28.088 103.17 28.088C103.97 28.088 104.546 27.9653 104.898 27.72C105.25 27.464 105.426 27.128 105.426 26.712C105.426 26.4027 105.325 26.1627 105.122 25.992C104.93 25.8107 104.674 25.6773 104.354 25.592C104.034 25.496 103.677 25.416 103.282 25.352C102.887 25.288 102.493 25.2133 102.098 25.128C101.714 25.0427 101.362 24.92 101.042 24.76C100.722 24.5893 100.461 24.36 100.258 24.072C100.066 23.784 99.97 23.4 99.97 22.92C99.97 22.4613 100.098 22.0507 100.354 21.688C100.61 21.3253 100.983 21.0427 101.474 20.84C101.975 20.6267 102.583 20.52 103.298 20.52C103.842 20.52 104.386 20.5947 104.93 20.744C105.474 20.8827 105.922 21.0693 106.274 21.304L105.778 22.216C105.405 21.96 105.005 21.7787 104.578 21.672C104.151 21.5547 103.725 21.496 103.298 21.496C102.541 21.496 101.981 21.6293 101.618 21.896C101.266 22.152 101.09 22.4827 101.09 22.888C101.09 23.208 101.186 23.4587 101.378 23.64C101.581 23.8213 101.842 23.9653 102.162 24.072C102.493 24.168 102.85 24.248 103.234 24.312C103.629 24.376 104.018 24.456 104.402 24.552C104.797 24.6373 105.154 24.76 105.474 24.92C105.805 25.0693 106.066 25.288 106.258 25.576C106.461 25.8533 106.562 26.2213 106.562 26.68C106.562 27.1707 106.423 27.5973 106.146 27.96C105.879 28.312 105.485 28.5893 104.962 28.792C104.45 28.984 103.826 29.08 103.09 29.08Z" fill="#4F4F4F"/>
<rect x="35" y="5" width="20" height="20" rx="10" fill="#EA5455"/>
<path d="M40.264 19.5V11.82L41.104 12.66H38.584V11.1H42.208V19.5H40.264ZM47.2672 19.644C46.5792 19.644 45.9632 19.476 45.4192 19.14C44.8752 18.796 44.4472 18.3 44.1352 17.652C43.8232 17.004 43.6672 16.22 43.6672 15.3C43.6672 14.38 43.8232 13.596 44.1352 12.948C44.4472 12.3 44.8752 11.808 45.4192 11.472C45.9632 11.128 46.5792 10.956 47.2672 10.956C47.9632 10.956 48.5792 11.128 49.1152 11.472C49.6592 11.808 50.0872 12.3 50.3992 12.948C50.7112 13.596 50.8672 14.38 50.8672 15.3C50.8672 16.22 50.7112 17.004 50.3992 17.652C50.0872 18.3 49.6592 18.796 49.1152 19.14C48.5792 19.476 47.9632 19.644 47.2672 19.644ZM47.2672 18C47.5952 18 47.8792 17.908 48.1192 17.724C48.3672 17.54 48.5592 17.248 48.6952 16.848C48.8392 16.448 48.9112 15.932 48.9112 15.3C48.9112 14.668 48.8392 14.152 48.6952 13.752C48.5592 13.352 48.3672 13.06 48.1192 12.876C47.8792 12.692 47.5952 12.6 47.2672 12.6C46.9472 12.6 46.6632 12.692 46.4152 12.876C46.1752 13.06 45.9832 13.352 45.8392 13.752C45.7032 14.152 45.6352 14.668 45.6352 15.3C45.6352 15.932 45.7032 16.448 45.8392 16.848C45.9832 17.248 46.1752 17.54 46.4152 17.724C46.6632 17.908 46.9472 18 47.2672 18Z" fill="white"/>
</svg>
