<svg width="220" height="46" viewBox="0 0 220 46" fill="none" xmlns="http://www.w3.org/2000/svg">
<path d="M37.75 14.0625H18.25C16.4552 14.0625 15 15.5185 15 17.3125V27.875C15 29.6698 16.4552 31.125 18.25 31.125H37.75C39.5448 31.125 41 29.6698 41 27.875V17.3125C41 15.5185 39.5448 14.0625 37.75 14.0625ZM16.625 18.3281L22.3117 22.5938L16.625 26.8594V18.3281ZM39.375 27.875C39.375 28.772 38.6454 29.5 37.75 29.5H18.25C17.3538 29.5 16.625 28.772 16.625 27.875L22.9885 23.1016L26.5375 25.7641C26.9706 26.0875 27.4849 26.2516 28 26.2516C28.5143 26.2516 29.0286 26.0883 29.4617 25.7641L33.0115 23.1016L39.375 27.875ZM39.375 26.8594L33.6875 22.5938L39.375 18.3281V26.8594ZM28.9742 25.1141C28.6906 25.327 28.3542 25.4391 28 25.4391C27.6458 25.4391 27.3086 25.3262 27.025 25.1141L16.625 17.3125C16.625 16.4163 17.3538 15.6875 18.25 15.6875H37.75C38.6454 15.6875 39.375 16.4163 39.375 17.3125L28.9742 25.1141Z" fill="#4F4F4F"/>
<path d="M63.88 22.808H69.8V23.816H63.88V22.808ZM64.008 27.976H70.744V29H62.824V17.8H70.504V18.824H64.008V27.976ZM83.7831 20.52C84.4658 20.52 85.0578 20.6533 85.5591 20.92C86.0711 21.176 86.4658 21.5707 86.7431 22.104C87.0311 22.6373 87.1751 23.3093 87.1751 24.12V29H86.0391V24.232C86.0391 23.3467 85.8258 22.68 85.3991 22.232C84.9831 21.7733 84.3911 21.544 83.6231 21.544C83.0471 21.544 82.5458 21.6667 82.1191 21.912C81.7031 22.1467 81.3778 22.4933 81.1431 22.952C80.9191 23.4 80.8071 23.944 80.8071 24.584V29H79.6711V24.232C79.6711 23.3467 79.4578 22.68 79.0311 22.232C78.6045 21.7733 78.0071 21.544 77.2391 21.544C76.6738 21.544 76.1778 21.6667 75.7511 21.912C75.3245 22.1467 74.9938 22.4933 74.7591 22.952C74.5351 23.4 74.4231 23.944 74.4231 24.584V29H73.2871V20.6H74.3751V22.872L74.1991 22.472C74.4551 21.864 74.8658 21.3893 75.4311 21.048C76.0071 20.696 76.6845 20.52 77.4631 20.52C78.2845 20.52 78.9831 20.728 79.5591 21.144C80.1351 21.5493 80.5085 22.1627 80.6791 22.984L80.2311 22.808C80.4765 22.1253 80.9085 21.576 81.5271 21.16C82.1565 20.7333 82.9085 20.52 83.7831 20.52ZM95.5199 29V27.144L95.4719 26.84V23.736C95.4719 23.0213 95.2692 22.472 94.8639 22.088C94.4692 21.704 93.8772 21.512 93.0879 21.512C92.5439 21.512 92.0265 21.6027 91.5359 21.784C91.0452 21.9653 90.6292 22.2053 90.2879 22.504L89.7759 21.656C90.2025 21.2933 90.7145 21.016 91.3119 20.824C91.9092 20.6213 92.5385 20.52 93.1999 20.52C94.2879 20.52 95.1252 20.792 95.7119 21.336C96.3092 21.8693 96.6079 22.6853 96.6079 23.784V29H95.5199ZM92.6239 29.08C91.9945 29.08 91.4452 28.9787 90.9759 28.776C90.5172 28.5627 90.1652 28.2747 89.9199 27.912C89.6745 27.5387 89.5519 27.112 89.5519 26.632C89.5519 26.1947 89.6532 25.8 89.8559 25.448C90.0692 25.0853 90.4105 24.7973 90.8799 24.584C91.3599 24.36 91.9999 24.248 92.7999 24.248H95.6959V25.096H92.8319C92.0212 25.096 91.4559 25.24 91.1359 25.528C90.8265 25.816 90.6719 26.1733 90.6719 26.6C90.6719 27.08 90.8585 27.464 91.2319 27.752C91.6052 28.04 92.1279 28.184 92.7999 28.184C93.4399 28.184 93.9892 28.04 94.4479 27.752C94.9172 27.4533 95.2585 27.0267 95.4719 26.472L95.7279 27.256C95.5145 27.8107 95.1412 28.2533 94.6079 28.584C94.0852 28.9147 93.4239 29.08 92.6239 29.08ZM99.6934 29V20.6H100.829V29H99.6934ZM100.269 18.744C100.035 18.744 99.8374 18.664 99.6774 18.504C99.5174 18.344 99.4374 18.152 99.4374 17.928C99.4374 17.704 99.5174 17.5173 99.6774 17.368C99.8374 17.208 100.035 17.128 100.269 17.128C100.504 17.128 100.701 17.2027 100.861 17.352C101.021 17.5013 101.101 17.688 101.101 17.912C101.101 18.1467 101.021 18.344 100.861 18.504C100.712 18.664 100.515 18.744 100.269 18.744ZM103.99 29V17.128H105.126V29H103.99Z" fill="#4F4F4F"/>
<rect x="35" y="5" width="20" height="20" rx="10" fill="#6FCF97"/>
<path d="M40.264 19.5V11.82L41.104 12.66H38.584V11.1H42.208V19.5H40.264ZM47.2672 19.644C46.5792 19.644 45.9632 19.476 45.4192 19.14C44.8752 18.796 44.4472 18.3 44.1352 17.652C43.8232 17.004 43.6672 16.22 43.6672 15.3C43.6672 14.38 43.8232 13.596 44.1352 12.948C44.4472 12.3 44.8752 11.808 45.4192 11.472C45.9632 11.128 46.5792 10.956 47.2672 10.956C47.9632 10.956 48.5792 11.128 49.1152 11.472C49.6592 11.808 50.0872 12.3 50.3992 12.948C50.7112 13.596 50.8672 14.38 50.8672 15.3C50.8672 16.22 50.7112 17.004 50.3992 17.652C50.0872 18.3 49.6592 18.796 49.1152 19.14C48.5792 19.476 47.9632 19.644 47.2672 19.644ZM47.2672 18C47.5952 18 47.8792 17.908 48.1192 17.724C48.3672 17.54 48.5592 17.248 48.6952 16.848C48.8392 16.448 48.9112 15.932 48.9112 15.3C48.9112 14.668 48.8392 14.152 48.6952 13.752C48.5592 13.352 48.3672 13.06 48.1192 12.876C47.8792 12.692 47.5952 12.6 47.2672 12.6C46.9472 12.6 46.6632 12.692 46.4152 12.876C46.1752 13.06 45.9832 13.352 45.8392 13.752C45.7032 14.152 45.6352 14.668 45.6352 15.3C45.6352 15.932 45.7032 16.448 45.8392 16.848C45.9832 17.248 46.1752 17.54 46.4152 17.724C46.6632 17.908 46.9472 18 47.2672 18Z" fill="#4F4F4F"/>
</svg>
